<?xml version="1.0" standalone="no"?>
<!DOCTYPE svg PUBLIC "-//W3C//DTD SVG 1.1//EN" "http://www.w3.org/Graphics/SVG/1.1/DTD/svg11.dtd" >
<svg xmlns="http://www.w3.org/2000/svg">
<metadata></metadata>
<defs>
<font id="sansationbold_italic" horiz-adv-x="1247" >
<font-face units-per-em="2048" ascent="1638" descent="-410" />
<missing-glyph horiz-adv-x="454" />
<glyph unicode="ffi" horiz-adv-x="1060" d="M0 0v1060h1060v-1060h-1060z" />
<glyph unicode="&#xfb01;" horiz-adv-x="1132" d="M-203 -296q154 136 202 377l206 1031q81 405 558 405q170 0 328 -71l-43 -212q-141 71 -309 71q-228 0 -265 -185l-11 -60h612l-212 -1060h-268l170 848h-345l-153 -767q-65 -321 -289 -523z" />
<glyph unicode="&#xfb02;" horiz-adv-x="1162" d="M-203 -296q154 136 202 377l206 1031q81 405 608 405q201 0 369 -71l-289 -1446h-268l257 1287q-47 18 -133 18q-238 0 -275 -185l-11 -60h217l-43 -212h-217l-153 -767q-65 -321 -289 -523z" />
<glyph horiz-adv-x="2068" />
<glyph horiz-adv-x="2068" />
<glyph unicode="&#xd;" horiz-adv-x="393" />
<glyph unicode=" "  horiz-adv-x="454" />
<glyph unicode="&#x09;" horiz-adv-x="454" />
<glyph unicode="&#xa0;" horiz-adv-x="454" />
<glyph unicode="!" horiz-adv-x="570" d="M8 0l50 247h267l-49 -247h-268zM83 374l214 1070h268l-215 -1070h-267z" />
<glyph unicode="&#x22;" horiz-adv-x="823" d="M189 1005l57 439h248l-118 -439h-187zM563 1005l57 439h248l-119 -439h-186z" />
<glyph unicode="#" horiz-adv-x="1911" d="M27 347l62 156h406l166 382h-405l61 155h416l181 399h182l-181 -399h382l184 404h181l-182 -404h396l-62 -155h-406l-166 -382h405l-61 -156h-416l-162 -352h-182l162 352h-382l-162 -352h-181l160 352h-396zM678 503h380l167 382h-381z" />
<glyph unicode="$" horiz-adv-x="1035" d="M29 232l45 222q162 -70 394 -70q172 0 195 111q20 101 -96 101h-192q-323 0 -259 323q56 278 392 324l40 201h258l-39 -197q135 -12 252 -55l-44 -222q-163 70 -370 70q-217 0 -239 -111q-21 -101 106 -101h171q354 0 289 -323q-55 -279 -379 -324l-36 -181h-257l35 177 q-148 12 -266 55z" />
<glyph unicode="%" horiz-adv-x="1517" d="M-42 0l1316 1444h267l-1316 -1444h-267zM188 1151q60 303 392 303q327 0 266 -303q-64 -322 -392 -322q-331 0 -266 322zM380 1153q-30 -148 110 -148q135 0 164 148q26 126 -110 126q-139 0 -164 -126zM675 302q62 313 394 313q327 0 264 -313q-62 -312 -390 -312 q-331 0 -268 312zM867 304q-28 -138 112 -138q135 0 162 138q28 135 -108 135q-139 0 -166 -135z" />
<glyph unicode="&#x26;" horiz-adv-x="1348" d="M40 418q47 229 249 316q-168 86 -122 311q79 399 595 399q186 0 353 -50l-42 -212q-167 50 -341 50q-260 0 -297 -182q-42 -212 165 -212h341l29 144h144l75 -144h184l-43 -212h-163l-27 -131q-100 -498 -653 -498q-530 0 -447 421zM309 423q-41 -211 222 -211 q285 0 342 285l26 129h-339q-210 0 -251 -203z" />
<glyph unicode="'" horiz-adv-x="449" d="M189 1005l57 439h248l-118 -439h-187z" />
<glyph unicode="(" horiz-adv-x="646" d="M64 530q91 458 384 914h268q-294 -456 -385 -914q-92 -457 19 -914h-267q-111 457 -19 914z" />
<glyph unicode=")" horiz-adv-x="646" d="M-144 -384q292 457 384 914q92 458 -19 914h268q111 -456 19 -914q-92 -457 -385 -914h-267z" />
<glyph unicode="*" horiz-adv-x="818" d="M190 1162l79 151l192 -104l16 235h157l-76 -234l231 102l18 -148l-238 -44l126 -172l-144 -93l-72 208l-155 -207l-108 90l198 173z" />
<glyph unicode="+" horiz-adv-x="959" d="M42 424l43 212h273l54 273h212l-54 -273h272l-42 -212h-273l-54 -272h-212l54 272h-273z" />
<glyph unicode="," horiz-adv-x="469" d="M-169 -252l240 439h267l-239 -439h-268z" />
<glyph unicode="-" horiz-adv-x="707" d="M42 424l43 212h505l-43 -212h-505z" />
<glyph unicode="." horiz-adv-x="469" d="M-42 0l49 247h268l-50 -247h-267z" />
<glyph unicode="/" horiz-adv-x="1070" d="M-118 0l1021 1444h288l-1021 -1444h-288z" />
<glyph unicode="0" horiz-adv-x="1459" d="M92 720q146 734 791 734q633 0 487 -734q-147 -730 -780 -730q-645 0 -498 730zM371 726q-101 -504 265 -504q356 0 457 504q99 496 -257 496q-366 0 -465 -496z" />
<glyph unicode="1" horiz-adv-x="696" d="M109 0l245 1223h-152l22 110l448 142l-295 -1475h-268z" />
<glyph unicode="2" horiz-adv-x="1191" d="M-42 0l40 202q822 502 888 828q38 192 -224 192q-223 0 -442 -111l49 242q217 101 439 101q530 0 445 -424q-74 -374 -738 -798h579l-47 -232h-989z" />
<glyph unicode="3" horiz-adv-x="1126" d="M-32 50l48 243q188 -71 410 -71q273 0 309 182q43 212 -151 212h-352l47 232h348q197 0 240 212q32 162 -241 162q-222 0 -438 -71l48 243q214 60 437 60q540 0 461 -394q-47 -238 -255 -328q172 -86 124 -328q-83 -414 -623 -414q-222 0 -412 60z" />
<glyph unicode="4" horiz-adv-x="1232" d="M-20 313l40 202l777 929h287l-756 -919h423l97 483h268l-97 -483l122 -137l-15 -75h-149l-63 -313h-268l63 313h-729z" />
<glyph unicode="5" horiz-adv-x="1171" d="M-7 50l44 223q188 -71 400 -71q288 0 339 252q46 233 -232 233q-227 0 -434 -51l212 808h863l-43 -212h-632l-95 -355q62 22 172 22q545 0 456 -445q-93 -464 -658 -464q-202 0 -392 60z" />
<glyph unicode="6" horiz-adv-x="1262" d="M69 556q112 561 881 932l85 -209q-388 -163 -567 -393q131 43 257 43q529 0 441 -444q-99 -495 -668 -495q-542 0 -429 566zM327 562q-71 -360 222 -360q296 0 353 283q46 232 -228 232q-156 0 -307 -48q-27 -41 -40 -107z" />
<glyph unicode="7" horiz-adv-x="1181" d="M45 0l901 1212h-746l46 232h1031l-43 -212l-895 -1232h-294z" />
<glyph unicode="8" horiz-adv-x="1292" d="M23 428q45 225 281 335q-155 95 -108 326q74 369 599 369t451 -369q-46 -231 -244 -326q197 -110 152 -335q-87 -438 -643 -438q-576 0 -488 438zM290 422q-41 -200 273 -200q282 0 323 200q42 214 -254 214q-300 0 -342 -214zM458 1058q-39 -189 224 -189q252 0 291 189 q32 164 -224 164q-259 0 -291 -164z" />
<glyph unicode="9" horiz-adv-x="1277" d="M153 973q96 484 665 484q542 0 429 -565q-112 -562 -881 -932l-85 209q378 162 569 403q-133 -54 -259 -54q-529 0 -438 455zM416 973q-48 -243 226 -243q156 0 307 49q27 40 40 107q71 359 -222 359q-296 0 -351 -272z" />
<glyph unicode=":" horiz-adv-x="494" d="M-17 0l49 247h268l-50 -247h-267zM145 813l50 247h268l-50 -247h-268z" />
<glyph unicode=";" horiz-adv-x="621" d="M-93 -252l239 439h268l-239 -439h-268zM272 813l49 247h268l-50 -247h-267z" />
<glyph unicode="&#x3c;" horiz-adv-x="1111" d="M44 434l39 192l986 384l-51 -252l-625 -232l534 -223l-50 -253z" />
<glyph unicode="=" horiz-adv-x="959" d="M6 242l42 212h758l-42 -212h-758zM79 606l42 212h758l-43 -212h-757z" />
<glyph unicode="&#x3e;" horiz-adv-x="1111" d="M-32 50l50 253l623 223l-532 232l51 252l832 -384l-39 -192z" />
<glyph unicode="?" horiz-adv-x="1126" d="M109 0l50 247h267l-49 -247h-268zM184 374l89 444h267q258 0 304 232q37 182 -236 182q-192 0 -414 -50l42 212q223 50 414 50q521 0 442 -394q-89 -444 -594 -444l-47 -232h-267z" />
<glyph unicode="@" horiz-adv-x="2211" d="M67 545q181 909 1185 909q1006 0 825 -909q-140 -697 -622 -697q-304 0 -258 227l28 151l4 47q-174 -273 -412 -273q-372 0 -269 516q110 544 660 544q185 0 437 -43l-178 -898q-13 -58 68 -58q177 0 274 484q139 697 -584 697q-751 0 -891 -697q-143 -717 539 -717 l-43 -212q-949 0 -763 929zM814 518q-60 -296 99 -296q196 0 362 277l63 321q-60 24 -202 24q-257 0 -322 -326z" />
<glyph unicode="A" horiz-adv-x="1577" d="M-118 0l902 1444h288l337 -1444h-278l-86 394h-479l138 232h291l-119 543l-709 -1169h-285z" />
<glyph unicode="B" horiz-adv-x="1334" d="M8 0l289 1444h677q353 0 353 -248q0 -41 -9 -88q-48 -246 -338 -353q230 -44 230 -243q0 -39 -9 -85q-86 -427 -537 -427h-656zM322 232h377q178 0 214 182q7 33 7 61q0 164 -227 164h-81l34 173q345 56 389 279q3 17 3 31q0 90 -128 90h-392z" />
<glyph unicode="C" horiz-adv-x="1403" d="M82 518q0 102 24 224q142 712 920 712q238 0 410 -70l-48 -243q-171 81 -388 81q-520 0 -616 -480q-17 -87 -17 -158q0 -362 433 -362q217 0 420 81l-48 -242q-201 -71 -439 -71q-651 0 -651 528z" />
<glyph unicode="D" horiz-adv-x="1509" d="M8 0l289 1444h566q603 0 603 -481q0 -92 -23 -201q-152 -762 -869 -762h-566zM322 232h298q450 0 556 530q15 74 15 137q0 313 -375 313h-298z" />
<glyph unicode="E" horiz-adv-x="1250" d="M8 0l289 1444h989l-47 -230h-723l-73 -364h689l-47 -239h-692l-76 -379h740l-46 -232h-1003z" />
<glyph unicode="F" horiz-adv-x="1175" d="M8 0l289 1444h948l-46 -230h-683l-73 -364h649l-48 -239h-651l-122 -611h-263z" />
<glyph unicode="G" horiz-adv-x="1403" d="M81 515q0 103 25 227q142 712 920 712q238 0 410 -70l-48 -243q-171 81 -388 81q-520 0 -616 -480q-18 -91 -18 -165q0 -355 405 -355q72 0 170 24l84 421h268l-120 -600q-190 -77 -453 -77q-639 0 -639 525z" />
<glyph unicode="H" horiz-adv-x="1550" d="M8 0l289 1444h268l-120 -596h712l120 596h267l-289 -1444h-267l123 616h-712l-123 -616h-268z" />
<glyph unicode="I" horiz-adv-x="570" d="M8 0l289 1444h268l-289 -1444h-268z" />
<glyph unicode="J" horiz-adv-x="747" d="M-118 0l46 232q303 0 340 184l206 1028h267l-206 -1028q-83 -416 -653 -416z" />
<glyph unicode="K" horiz-adv-x="1464" d="M8 0l289 1444h268l-289 -1444h-268zM492 675l34 173l677 596h337l-801 -701l587 -743h-350z" />
<glyph unicode="L" horiz-adv-x="1093" d="M8 0l289 1444h268l-243 -1212h574l-47 -232h-841z" />
<glyph unicode="M" horiz-adv-x="1818" d="M8 0l289 1444h278l270 -1096l699 1096h268l-289 -1444h-247l201 1006l-593 -1006h-229l-198 1006l-201 -1006h-248z" />
<glyph unicode="N" horiz-adv-x="1590" d="M8 0l289 1444h268l556 -1032l206 1032h258l-289 -1444h-268l-551 1054l-211 -1054h-258z" />
<glyph unicode="O" horiz-adv-x="1641" d="M86 528q0 89 16 192q146 734 872 734q593 0 593 -506q0 -104 -26 -228q-146 -730 -860 -730q-595 0 -595 538zM363 558q0 -336 364 -336q437 0 538 504q18 92 18 167q0 329 -356 329q-447 0 -546 -496q-18 -93 -18 -168z" />
<glyph unicode="P" horiz-adv-x="1265" d="M8 0l289 1444h646q374 0 374 -290q0 -53 -13 -117q-88 -441 -711 -534l9 238q377 66 421 288q6 29 6 55q0 125 -150 125h-362l-241 -1209h-268z" />
<glyph unicode="Q" horiz-adv-x="1641" d="M86 528q0 89 16 192q146 734 872 734q593 0 593 -506q0 -103 -26 -228q-133 -663 -736 -724q39 -175 263 -178q131 0 218 30l-43 -212q-87 -30 -218 -30q-451 0 -451 379v10q-488 46 -488 533zM363 558q0 -336 364 -336q437 0 538 504q18 92 18 167q0 329 -356 329 q-447 0 -546 -496q-18 -93 -18 -168z" />
<glyph unicode="R" horiz-adv-x="1328" d="M8 2l289 1442h656q377 0 377 -279q0 -50 -12 -108q-62 -306 -431 -433l333 -624h-312l-314 629l24 122q372 66 418 298q5 25 5 45q0 115 -152 115h-367l-241 -1207h-273z" />
<glyph unicode="S" horiz-adv-x="1292" d="M-5 61l48 242q201 -81 475 -81q332 0 377 222q4 23 4 42q0 120 -176 120h-226q-375 0 -375 289q0 52 12 115q89 444 720 444q243 0 446 -70l-49 -243q-201 81 -443 81q-364 0 -406 -212q-5 -25 -5 -46q0 -116 148 -116h227q402 0 402 -294q0 -51 -11 -110 q-91 -454 -691 -454q-274 0 -477 71z" />
<glyph unicode="T" horiz-adv-x="1095" d="M99 1212l46 232h1096l-46 -232h-414l-243 -1212h-267l242 1212h-414z" />
<glyph unicode="U" horiz-adv-x="1545" d="M103 401q0 77 18 167l176 876h268l-176 -876q-11 -57 -11 -103q0 -243 296 -243q353 0 422 346l176 876h267l-175 -876q-116 -578 -737 -578q-524 0 -524 411z" />
<glyph unicode="V" horiz-adv-x="1527" d="M145 1444h308l227 -1106l667 1106h326l-923 -1444h-287z" />
<glyph unicode="W" horiz-adv-x="1908" d="M129 0l52 1444h261l-52 -1037l583 1037h257l153 -997l362 997h274l-561 -1444h-254l-171 1133l-652 -1133h-252z" />
<glyph unicode="X" horiz-adv-x="1517" d="M-118 0l713 722l-424 722h328l294 -537l504 537h348l-712 -722l423 -722h-328l-294 537l-504 -537h-348z" />
<glyph unicode="Y" horiz-adv-x="1313" d="M171 1444h277l267 -696l521 696h288l-719 -939l-101 -505h-268l101 505z" />
<glyph unicode="Z" horiz-adv-x="1262" d="M-17 0l46 232l978 980h-762l47 232h1050l-46 -232l-965 -980h769l-47 -232h-1070z" />
<glyph unicode="[" horiz-adv-x="686" d="M-119 -384l365 1828h536l-43 -212h-267l-281 -1404h268l-43 -212h-535z" />
<glyph unicode="\" horiz-adv-x="1060" d="M171 1444h277l444 -1444h-278z" />
<glyph unicode="]" horiz-adv-x="686" d="M-170 -384l43 212h267l281 1404h-267l42 212h535l-365 -1828h-536z" />
<glyph unicode="^" horiz-adv-x="1060" d="M48 707l552 737h151l257 -737h-232l-156 478l-339 -478h-233z" />
<glyph unicode="_" horiz-adv-x="1060" d="M-161 -212l43 212h1010l-43 -212h-1010z" />
<glyph unicode="`" horiz-adv-x="669" d="M246 1444h323l93 -261h-227z" />
<glyph unicode="a" horiz-adv-x="1198" d="M13 316q0 88 22 200q109 544 660 544q185 0 437 -43l-203 -1017h-237l24 273q-174 -273 -412 -273q-291 0 -291 316zM285 379q0 -157 115 -157q196 0 362 277l63 321q-60 24 -202 24q-257 0 -322 -326q-16 -81 -16 -139z" />
<glyph unicode="b" horiz-adv-x="1189" d="M-8 43l280 1401h267l-127 -636q171 252 419 252q276 0 276 -299q0 -83 -21 -189q-115 -572 -634 -572q-218 0 -460 43zM300 245q86 -29 207 -29q242 0 313 353q12 62 12 110q0 159 -137 159q-166 0 -327 -256z" />
<glyph unicode="c" horiz-adv-x="949" d="M6 367q0 78 19 173q104 520 650 520q151 0 276 -30l-42 -212q-125 30 -257 30q-297 0 -359 -308q-13 -66 -13 -120q0 -208 205 -208q171 0 329 131l-42 -212q-158 -131 -350 -131q-416 0 -416 367z" />
<glyph unicode="d" horiz-adv-x="1198" d="M13 316q0 88 22 200q109 544 660 544q82 0 177 -8l78 392h268l-289 -1444h-237l24 273q-174 -273 -412 -273q-291 0 -291 316zM285 379q0 -157 115 -157q196 0 362 277l63 321q-60 24 -202 24q-257 0 -322 -326q-16 -81 -16 -139z" />
<glyph unicode="e" horiz-adv-x="1091" d="M7 374q0 76 18 168q104 518 612 518q397 0 397 -243q0 -34 -8 -74q-63 -317 -491 -317h-265q-6 -28 -5 -52q0 -162 241 -162q211 0 398 131l-42 -212q-167 -131 -419 -131q-436 0 -436 374zM309 622h268q166 0 190 114q2 12 2 23q0 91 -174 91q-222 0 -286 -228z" />
<glyph unicode="f" horiz-adv-x="723" d="M-203 -296q154 136 202 377l196 979q87 437 564 437q130 0 228 -41l-43 -212q-92 41 -229 41q-208 0 -252 -225h318l-43 -212h-318l-153 -767q-65 -321 -289 -523z" />
<glyph unicode="g" horiz-adv-x="1198" d="M-54 -333l43 212q144 -51 339 -51q299 0 334 172l54 273q-174 -273 -412 -273q-291 0 -291 316q0 88 22 200q109 544 660 544q185 0 437 -43l-203 -1017q-77 -384 -645 -384q-196 0 -338 51zM285 379q0 -157 115 -157q196 0 362 277l63 321q-60 24 -202 24 q-257 0 -322 -326q-16 -81 -16 -139z" />
<glyph unicode="h" d="M-17 0l289 1444h267l-144 -721q193 337 489 337q249 0 250 -229q0 -51 -13 -115l-143 -716h-268l143 719q4 18 4 34q0 91 -123 91q-191 0 -382 -336l-102 -508h-267z" />
<glyph unicode="i" horiz-adv-x="520" d="M-17 0l212 1060h268l-213 -1060h-267zM229 1232l43 212h267l-42 -212h-268z" />
<glyph unicode="j" horiz-adv-x="520" d="M-203 -296q154 136 202 377l196 979h268l-196 -979q-65 -321 -289 -523zM229 1232l43 212h267l-42 -212h-268z" />
<glyph unicode="k" horiz-adv-x="1223" d="M-17 0l289 1444h267l-133 -668q221 284 484 284q276 0 276 -205q0 -37 -9 -80q-40 -202 -359 -345l241 -430h-307l-205 400l17 84q314 81 351 261q2 14 2 25q0 78 -123 78q-185 0 -413 -297l-111 -551h-267z" />
<glyph unicode="l" horiz-adv-x="520" d="M-17 0l289 1444h267l-289 -1444h-267z" />
<glyph unicode="m" horiz-adv-x="1853" d="M-17 0l212 1060h237l-38 -345q182 345 412 345q246 0 246 -229q0 -52 -13 -118q203 347 432 347q260 0 260 -258q0 -65 -16 -144l-131 -658h-268l133 668q8 40 8 71q0 105 -91 105q-170 0 -348 -339l-101 -505h-268l134 665q8 41 8 73q0 106 -90 106q-178 0 -350 -339 l-101 -505h-267z" />
<glyph unicode="n" d="M-17 0l212 1060h237l-41 -357q197 357 493 357q249 0 250 -229q0 -51 -13 -115l-143 -716h-268l143 719q4 18 4 34q0 91 -123 91q-191 0 -382 -336l-102 -508h-267z" />
<glyph unicode="o" horiz-adv-x="1181" d="M20 362q0 76 18 168q108 541 624 541q425 0 425 -368q0 -80 -18 -173q-108 -539 -624 -539q-425 0 -425 371zM293 408q0 -206 195 -206q247 0 314 332q13 67 13 120q0 204 -196 204q-247 0 -312 -324q-14 -70 -14 -126z" />
<glyph unicode="p" horiz-adv-x="1189" d="M-94 -384l289 1444h237l-20 -252q171 252 419 252q275 0 275 -298q0 -83 -21 -190q-114 -572 -633 -572q-97 0 -200 9l-78 -393h-268zM300 245q86 -29 207 -29q242 0 313 353q12 62 12 110q0 159 -137 159q-166 0 -328 -256z" />
<glyph unicode="q" horiz-adv-x="1198" d="M13 316q0 88 22 200q109 544 660 544q185 0 437 -43l-280 -1401h-267l131 657q-174 -273 -412 -273q-291 0 -291 316zM285 379q0 -157 115 -157q196 0 362 277l63 321q-60 24 -202 24q-257 0 -322 -326q-16 -81 -16 -139z" />
<glyph unicode="r" horiz-adv-x="737" d="M-17 0l212 1060h237l-37 -337q180 337 386 337l-46 -226q-200 0 -383 -326l-102 -508h-267z" />
<glyph unicode="s" horiz-adv-x="1035" d="M-7 50l44 223q163 -71 394 -71q173 0 195 111q3 15 3 27q0 74 -99 74h-192q-269 0 -269 224q0 45 11 99q66 334 538 334q200 0 365 -61l-45 -222q-162 70 -369 70q-218 0 -240 -111q-3 -14 -3 -26q0 -75 109 -75h172q299 0 299 -231q0 -42 -10 -92q-67 -333 -517 -333 q-221 0 -386 60z" />
<glyph unicode="t" horiz-adv-x="686" d="M30 193q0 42 10 93l189 946h198l6 -172h247l-43 -212h-217l-98 -487q-5 -28 -5 -51q0 -98 104 -98h89l-42 -212h-219q-219 0 -219 193z" />
<glyph unicode="u" d="M39 229q0 52 13 115l143 716h268l-144 -719q-4 -18 -3 -34q0 -91 122 -91q191 0 382 336l102 508h268l-212 -1060h-238l42 358q-197 -358 -493 -358q-250 0 -250 229z" />
<glyph unicode="v" horiz-adv-x="1090" d="M69 1060h282l110 -741l416 741h282l-643 -1060h-254z" />
<glyph unicode="w" horiz-adv-x="1600" d="M19 341q0 94 24 215q56 277 202 504h268q-146 -227 -202 -504q-21 -105 -21 -175q0 -149 93 -149q187 0 251 324l101 504h268l-101 -504q-16 -83 -16 -145q0 -179 138 -179q136 0 201 324q28 137 28 261q0 128 -28 243h268q28 -111 28 -235q0 -128 -28 -269 q-111 -556 -515 -556q-238 0 -265 292q-139 -292 -377 -292q-317 0 -317 341z" />
<glyph unicode="x" horiz-adv-x="1090" d="M-143 0l503 530l-291 530h288l180 -341l314 341h308l-501 -530l289 -530h-287l-181 341l-314 -341h-308z" />
<glyph unicode="y" d="M-5 -333l42 212q145 -51 340 -51q299 0 333 172l72 358q-197 -358 -493 -358q-250 0 -250 229q0 52 13 115l143 716h268l-144 -719q-4 -18 -4 -34q0 -91 123 -91q191 0 382 336l102 508h268l-212 -1060q-77 -384 -646 -384q-196 0 -337 51z" />
<glyph unicode="z" horiz-adv-x="969" d="M-63 0l41 202l639 646h-490l43 212h787l-42 -212l-641 -646h492l-41 -202h-788z" />
<glyph unicode="{" horiz-adv-x="762" d="M40 414l47 232q212 0 275 316q61 305 228 482h267q-166 -177 -228 -482q-70 -356 -338 -432q237 -76 167 -431q-62 -305 34 -483h-268q-96 178 -34 483q62 315 -150 315z" />
<glyph unicode="|" horiz-adv-x="570" d="M-69 -384l366 1828h268l-366 -1828h-268z" />
<glyph unicode="}" horiz-adv-x="762" d="M-170 -384q167 178 229 483q70 355 257 431q-156 76 -86 432q62 305 -34 482h268q96 -177 34 -482q-63 -316 149 -316l-46 -232q-212 0 -275 -315q-61 -305 -228 -483h-268z" />
<glyph unicode="~" horiz-adv-x="959" d="M38 404l43 212q71 62 176 62q86 0 196 -42q111 -40 201 -40q111 0 192 60l-42 -212q-71 -60 -176 -60q-87 0 -197 40q-110 42 -201 42q-110 0 -192 -62z" />
<glyph unicode="&#xa1;" horiz-adv-x="570" d="M-69 -384l214 1071h268l-214 -1071h-268zM171 813l49 247h268l-50 -247h-267z" />
<glyph unicode="&#xa2;" horiz-adv-x="949" d="M65 736q87 436 483 506l41 202h257l-37 -191q97 -7 182 -27l-43 -212q-125 30 -256 30q-298 0 -360 -308q-65 -328 192 -328q172 0 329 131l-42 -212q-98 -82 -210 -113l-43 -214h-258l41 205q-370 61 -276 531z" />
<glyph unicode="&#xa3;" horiz-adv-x="1229" d="M-48 -30l42 214q203 76 235 233q23 118 -19 294t-13 326q84 417 647 417q273 0 411 -101l-48 -242q-133 131 -412 131q-277 0 -317 -203q-30 -145 -5 -201h390l-43 -212h-317q18 -105 -2 -206q-27 -138 -100 -180q22 4 49 4q85 0 208 -43q45 -17 97 -17q127 0 286 99 l-46 -233q-139 -84 -304 -84q-95 0 -197 28q-124 32 -243 32q-154 0 -299 -56z" />
<glyph unicode="&#xa4;" horiz-adv-x="1150" d="M-7 175l141 121q-36 104 -11 234q29 139 105 234l-93 121l133 113l102 -122q122 68 257 68q125 0 214 -68l154 122l89 -113l-144 -121q42 -84 11 -234q-27 -140 -115 -234l105 -121l-133 -113l-105 124q-121 -61 -247 -61t-234 61l-141 -124zM289 534q-50 -248 198 -248 q247 0 297 248q49 247 -198 247q-248 0 -297 -247z" />
<glyph unicode="&#xa5;" horiz-adv-x="1262" d="M67 241l42 212h322l22 113h-322l43 212h279l-257 666h268l191 -515l404 515h298l-550 -666h286l-43 -212h-329l-22 -113h329l-42 -212h-330l-48 -241h-268l49 241h-322z" />
<glyph unicode="&#xa6;" horiz-adv-x="570" d="M-69 -384l148 738h267l-147 -738h-268zM149 707l148 737h267l-148 -737h-267z" />
<glyph unicode="&#xa7;" horiz-adv-x="1100" d="M16 40l45 223q164 -61 355 -61q213 0 231 91q21 101 -136 101h-71q-404 0 -341 313q32 160 176 218q-120 61 -87 226q60 303 532 303q200 0 367 -50l-45 -222q-164 60 -364 60q-225 0 -243 -91q-20 -101 137 -101h70q425 0 363 -310q-30 -151 -158 -224q101 -54 68 -223 q-61 -303 -541 -303q-191 0 -358 50zM349 724q-23 -120 134 -120h70q157 0 178 107q25 128 -131 128h-71q-156 0 -180 -115z" />
<glyph unicode="&#xa8;" horiz-adv-x="762" d="M208 1252l38 192h218l-39 -192h-217zM551 1252l39 192h217l-38 -192h-218z" />
<glyph unicode="&#xa9;" horiz-adv-x="1802" d="M155 730q144 724 899 724q745 0 600 -724q-148 -740 -892 -740q-756 0 -607 740zM260 726q-130 -645 500 -645q658 0 787 645q128 638 -511 638q-649 0 -776 -638zM486 735q84 420 504 420q166 0 283 -51l-21 -99q-114 59 -266 59q-328 0 -394 -329q-72 -355 256 -355 q153 0 291 58l-20 -99q-136 -51 -303 -51q-420 0 -330 447z" />
<glyph unicode="&#xaa;" horiz-adv-x="675" d="M192 1173q54 272 320 272q107 0 203 -22l-101 -508h-104l15 126q-85 -126 -204 -126q-181 0 -129 258zM304 1174q-31 -158 54 -158q108 0 183 108l43 211q-25 12 -96 12q-149 0 -184 -173z" />
<glyph unicode="&#xab;" horiz-adv-x="1089" d="M13 530l336 379h275l-336 -379l185 -378h-275zM467 530l336 379h275l-337 -379l185 -378h-275z" />
<glyph unicode="&#xac;" horiz-adv-x="1095" d="M127 848l43 212h894l-81 -404h-212l38 192h-682z" />
<glyph unicode="&#xad;" horiz-adv-x="707" d="M42 424l43 212h505l-43 -212h-505z" />
<glyph unicode="&#xae;" horiz-adv-x="1174" d="M215 1033q86 431 520 431q438 0 352 -431q-84 -419 -521 -419q-423 0 -351 419zM289 1035q-73 -364 288 -364q363 0 436 364q75 373 -289 373q-360 0 -435 -373zM418 764l108 541h232q154 0 128 -129q-21 -106 -183 -157l135 -255h-92l-124 243l9 45q161 26 180 121 q14 74 -73 74h-154l-96 -483h-70z" />
<glyph unicode="&#xaf;" horiz-adv-x="707" d="M204 1232l42 212h505l-42 -212h-505z" />
<glyph unicode="&#xb0;" horiz-adv-x="880" d="M182 1121q64 323 406 323q337 0 273 -323q-65 -322 -402 -322q-342 0 -277 322zM374 1123q-30 -148 120 -148q145 0 175 148q29 146 -117 146q-149 0 -178 -146z" />
<glyph unicode="&#xb1;" horiz-adv-x="959" d="M-42 0l42 212h758l-43 -212h-757zM73 576l42 212h273l54 272h212l-54 -272h273l-43 -212h-272l-55 -273h-212l54 273h-272z" />
<glyph unicode="&#xb2;" horiz-adv-x="595" d="M50 717l36 177q335 175 361 308q14 66 -77 66t-200 -56l36 182q108 50 199 50q286 0 237 -242q-31 -157 -311 -308h250l-36 -177h-495z" />
<glyph unicode="&#xb3;" horiz-adv-x="583" d="M56 743l36 182q94 -36 195 -36q87 0 97 50q13 67 -34 67h-165l31 156h164q48 0 61 66q8 41 -78 41q-101 0 -209 -37l36 182q107 30 208 30q281 0 237 -216q-20 -99 -124 -144q87 -44 67 -145q-46 -226 -327 -226q-101 0 -195 30z" />
<glyph unicode="&#xb4;" horiz-adv-x="669" d="M194 1183l198 261h322l-294 -261h-226z" />
<glyph unicode="&#xb6;" horiz-adv-x="962" d="M57 996q88 448 536 448h515l-18 -91h-152l-357 -1791h-101l357 1791h-161l-358 -1791h-101l196 981q-447 0 -356 453z" />
<glyph unicode="&#xb7;" horiz-adv-x="454" d="M64 530q25 126 151 126t101 -126t-151 -126q-127 0 -101 126z" />
<glyph unicode="&#xb8;" horiz-adv-x="693" d="M-117 -376l26 130q99 -51 208 -51t120 56q8 44 -75 44h-185l187 273h166l-112 -154q216 0 184 -163q-37 -185 -311 -185q-109 0 -208 50z" />
<glyph unicode="&#xb9;" horiz-adv-x="331" d="M127 717l103 516h-76l19 96l293 111l-145 -723h-194z" />
<glyph unicode="&#xba;" horiz-adv-x="707" d="M193 1180q53 264 306 264q252 0 199 -264q-53 -265 -305 -265q-251 0 -200 265zM298 1182q-34 -172 114 -172q150 0 184 172q33 167 -116 167t-182 -167z" />
<glyph unicode="&#xbb;" horiz-adv-x="1089" d="M-63 152l337 378l-185 379h275l184 -379l-336 -378h-275zM391 152l336 378l-185 379h275l185 -379l-336 -378h-275z" />
<glyph unicode="&#xbc;" horiz-adv-x="1463" d="M-42 0l1122 1444h247l-1122 -1444h-247zM178 717l103 516h-77l19 96l293 111l-144 -723h-194zM742 26l37 182q94 -36 195 -36q84 0 95 50q13 67 -34 67h-165l31 155h165q47 0 60 67q8 40 -77 40q-101 0 -209 -36l37 182q107 30 208 30q280 0 236 -216q-19 -99 -123 -144 q86 -44 66 -145q-46 -226 -326 -226q-101 0 -196 30z" />
<glyph unicode="&#xbd;" horiz-adv-x="1456" d="M-42 0l1122 1444h247l-1122 -1444h-247zM178 717l103 516h-77l19 96l293 111l-144 -723h-194zM717 0l35 177q337 174 363 308q13 65 -78 65t-201 -55l37 182q109 50 200 50q284 0 236 -242q-31 -157 -312 -308h250l-35 -177h-495z" />
<glyph unicode="&#xbe;" horiz-adv-x="1504" d="M49 0l1123 1444h247l-1122 -1444h-248zM106 743l36 182q94 -36 195 -36q85 0 95 50q13 67 -33 67h-166l32 156h164q48 0 61 66q8 41 -77 41q-101 0 -209 -37l36 182q107 30 208 30q280 0 237 -216q-19 -99 -123 -144q85 -44 65 -145q-45 -226 -325 -226q-101 0 -196 30z M677 152l35 175l299 394h194l-294 -394h157l45 226h184l-46 -226l67 -38l-27 -137h-75l-30 -152h-184l30 152h-355z" />
<glyph unicode="&#xbf;" horiz-adv-x="1126" d="M-40 10q88 444 593 444l47 233h268l-89 -445h-268q-257 0 -304 -232q-36 -182 236 -182q192 0 414 51l-42 -212q-222 -51 -414 -51q-520 0 -441 394zM625 813l50 247h267l-49 -247h-268z" />
<glyph unicode="&#xc0;" horiz-adv-x="1577" d="M-118 0l902 1444h288l337 -1444h-278l-86 394h-479l138 232h291l-119 543l-709 -1169h-285zM622 1828h322l93 -261h-226z" />
<glyph unicode="&#xc1;" horiz-adv-x="1577" d="M-118 0l902 1444h288l337 -1444h-278l-86 394h-479l138 232h291l-119 543l-709 -1169h-285zM777 1567l198 261h322l-294 -261h-226z" />
<glyph unicode="&#xc2;" horiz-adv-x="1577" d="M-118 0l902 1444h288l337 -1444h-278l-86 394h-479l138 232h291l-119 543l-709 -1169h-285zM680 1566l229 262h151l125 -262h-182l-45 131l-96 -131h-182z" />
<glyph unicode="&#xc3;" horiz-adv-x="1577" d="M-118 0l902 1444h288l337 -1444h-278l-86 394h-479l138 232h291l-119 543l-709 -1169h-285zM691 1570l42 212q70 46 141 46q52 0 106 -26q53 -26 110 -26q76 0 156 46l-42 -212q-70 -47 -140 -47q-53 0 -107 27q-53 26 -110 26q-75 0 -156 -46z" />
<glyph unicode="&#xc4;" horiz-adv-x="1577" d="M-118 0l902 1444h288l337 -1444h-278l-86 394h-479l138 232h291l-119 543l-709 -1169h-285zM677 1636l38 192h217l-38 -192h-217zM1020 1636l38 192h218l-39 -192h-217z" />
<glyph unicode="&#xc5;" horiz-adv-x="1577" d="M-118 0l902 1444h4q-79 50 -53 181q43 212 273 212q226 0 184 -212q-26 -131 -123 -181h3l337 -1444h-278l-86 394h-479l138 232h291l-119 543l-709 -1169h-285zM826 1627q-27 -138 112 -138q136 0 163 138q27 135 -108 135q-140 0 -167 -135z" />
<glyph unicode="&#xc6;" horiz-adv-x="1944" d="M-118 0l902 1444h1159l-46 -232h-796l89 -364h599l-47 -232h-499l91 -384h387l-46 -232h-574l-233 1155l-333 -549h273l26 -212h-423l-234 -394h-295z" />
<glyph unicode="&#xc7;" horiz-adv-x="1403" d="M106 742q142 712 920 712q238 0 410 -70l-48 -243q-171 81 -388 81q-520 0 -616 -480q-104 -520 416 -520q217 0 420 81l-48 -242q-198 -70 -432 -71l-50 -68q216 0 184 -163q-38 -185 -311 -185q-110 0 -208 50l26 130q99 -51 208 -51t120 56q9 44 -75 44h-185l134 195 q-612 70 -477 744z" />
<glyph unicode="&#xc8;" horiz-adv-x="1250" d="M8 0l289 1444h989l-47 -230h-723l-73 -364h689l-47 -239h-692l-76 -379h740l-46 -232h-1003zM527 1828h322l93 -261h-226z" />
<glyph unicode="&#xc9;" horiz-adv-x="1250" d="M8 0l289 1444h989l-47 -230h-723l-73 -364h689l-47 -239h-692l-76 -379h740l-46 -232h-1003zM630 1567l198 261h322l-294 -261h-226z" />
<glyph unicode="&#xca;" horiz-adv-x="1250" d="M8 0l289 1444h989l-47 -230h-723l-73 -364h689l-47 -239h-692l-76 -379h740l-46 -232h-1003zM534 1566l230 262h151l124 -262h-182l-44 131l-97 -131h-182z" />
<glyph unicode="&#xcb;" horiz-adv-x="1250" d="M8 0l289 1444h989l-47 -230h-723l-73 -364h689l-47 -239h-692l-76 -379h740l-46 -232h-1003zM520 1636l39 192h217l-39 -192h-217zM864 1636l38 192h217l-38 -192h-217z" />
<glyph unicode="&#xcc;" horiz-adv-x="570" d="M8 0l289 1444h268l-289 -1444h-268zM180 1828h322l93 -261h-226z" />
<glyph unicode="&#xcd;" horiz-adv-x="570" d="M8 0l289 1444h268l-289 -1444h-268zM283 1567l198 261h322l-294 -261h-226z" />
<glyph unicode="&#xce;" horiz-adv-x="570" d="M9 0l289 1444h268l-289 -1444h-268zM197 1566l229 262h152l124 -262h-182l-44 131l-97 -131h-182z" />
<glyph unicode="&#xcf;" horiz-adv-x="570" d="M8 0l289 1444h268l-289 -1444h-268zM183 1636l38 192h217l-38 -192h-217zM526 1636l39 192h217l-39 -192h-217z" />
<glyph unicode="&#xd0;" horiz-adv-x="1469" d="M-71 616l47 232h202l119 596h525q717 0 581 -682q-153 -762 -870 -762h-525l123 616h-202zM322 232h258q449 0 555 530q90 450 -359 450h-258l-73 -364h288l-46 -232h-288z" />
<glyph unicode="&#xd1;" horiz-adv-x="1590" d="M8 0l289 1444h268l556 -1032l206 1032h258l-289 -1444h-268l-551 1054l-211 -1054h-258zM701 1570l42 212q70 46 141 46q52 0 106 -26q53 -26 110 -26q76 0 156 46l-42 -212q-70 -47 -140 -47q-53 0 -106 27q-54 26 -111 26q-75 0 -156 -46z" />
<glyph unicode="&#xd2;" horiz-adv-x="1641" d="M102 720q146 734 872 734q714 0 567 -734q-146 -730 -860 -730q-693 0 -579 730zM381 726q-101 -504 346 -504q437 0 538 504q99 496 -338 496q-447 0 -546 -496zM715 1828h322l93 -261h-226z" />
<glyph unicode="&#xd3;" horiz-adv-x="1641" d="M102 720q146 734 872 734q714 0 567 -734q-146 -730 -860 -730q-693 0 -579 730zM381 726q-101 -504 346 -504q437 0 538 504q99 496 -338 496q-447 0 -546 -496zM818 1567l198 261h322l-294 -261h-226z" />
<glyph unicode="&#xd4;" horiz-adv-x="1641" d="M102 720q146 734 872 734q714 0 567 -734q-146 -730 -860 -730q-693 0 -579 730zM381 726q-101 -504 346 -504q437 0 538 504q99 496 -338 496q-447 0 -546 -496zM722 1566l229 262h152l124 -262h-182l-44 131l-97 -131h-182z" />
<glyph unicode="&#xd5;" horiz-adv-x="1641" d="M102 720q146 734 872 734q714 0 567 -734q-146 -730 -860 -730q-693 0 -579 730zM381 726q-101 -504 346 -504q437 0 538 504q99 496 -338 496q-447 0 -546 -496zM723 1570l43 212q69 46 140 46q52 0 106 -26t110 -26q76 0 157 46l-43 -212q-69 -47 -140 -47 q-53 0 -106 27q-54 26 -110 26q-76 0 -157 -46z" />
<glyph unicode="&#xd6;" horiz-adv-x="1641" d="M102 720q146 734 872 734q714 0 567 -734q-146 -730 -860 -730q-693 0 -579 730zM381 726q-101 -504 346 -504q437 0 538 504q99 496 -338 496q-447 0 -546 -496zM728 1636l39 192h217l-39 -192h-217zM1072 1636l38 192h217l-38 -192h-217z" />
<glyph unicode="&#xd7;" horiz-adv-x="887" d="M25 337l232 193l-155 193l180 150l154 -193l232 193l119 -150l-231 -193l154 -193l-180 -149l-153 193l-233 -193z" />
<glyph unicode="&#xd8;" horiz-adv-x="1641" d="M-4 0l181 189q-130 183 -75 531q146 734 872 734q214 0 351 -66l54 56h260l-165 -173q140 -184 67 -551q-146 -730 -860 -730q-223 0 -363 76l-62 -66h-260zM381 726q-40 -198 6 -318l741 776q-79 38 -201 38q-447 0 -546 -496zM511 267q84 -45 216 -45q437 0 538 504 q39 200 -8 319z" />
<glyph unicode="&#xd9;" horiz-adv-x="1545" d="M121 568l176 876h268l-176 -876q-69 -346 285 -346q353 0 422 346l176 876h267l-175 -876q-116 -578 -737 -578t-506 578zM656 1828h323l93 -261h-227z" />
<glyph unicode="&#xda;" horiz-adv-x="1545" d="M121 568l176 876h268l-176 -876q-69 -346 285 -346q353 0 422 346l176 876h267l-175 -876q-116 -578 -737 -578t-506 578zM761 1567l197 261h323l-294 -261h-226z" />
<glyph unicode="&#xdb;" horiz-adv-x="1545" d="M121 568l176 876h268l-176 -876q-69 -346 285 -346q353 0 422 346l176 876h267l-175 -876q-116 -578 -737 -578t-506 578zM674 1566l229 262h151l125 -262h-182l-45 131l-97 -131h-181z" />
<glyph unicode="&#xdc;" horiz-adv-x="1545" d="M121 568l176 876h268l-176 -876q-69 -346 285 -346q353 0 422 346l176 876h267l-175 -876q-116 -578 -737 -578t-506 578zM661 1636l38 192h217l-38 -192h-217zM1004 1636l38 192h217l-38 -192h-217z" />
<glyph unicode="&#xdd;" horiz-adv-x="1313" d="M171 1444h277l267 -696l521 696h288l-719 -939l-101 -505h-268l101 505zM700 1567l198 261h322l-294 -261h-226z" />
<glyph unicode="&#xde;" horiz-adv-x="1290" d="M8 0l289 1444h277l-63 -311h400q412 0 339 -366q-86 -432 -700 -525l10 239q366 65 409 278q28 139 -122 139h-391l-180 -898h-268z" />
<glyph unicode="&#xdf;" horiz-adv-x="1228" d="M-203 -296q154 136 202 377l177 888q95 472 604 472q474 0 399 -381l-28 -136q-318 -53 -345 -190q-14 -71 161.5 -128.5t133.5 -270.5q-67 -335 -495 -335h-214l42 212h216q149 0 169 103q20 102 -145.5 159t-126.5 257q41 200 358 329q33 169 -175 169 q-234 0 -287 -263l-176 -885q-65 -321 -289 -523z" />
<glyph unicode="&#xe0;" horiz-adv-x="1198" d="M35 516q109 544 660 544q185 0 437 -43l-203 -1017h-237l24 273q-174 -273 -412 -273q-372 0 -269 516zM301 518q-60 -296 99 -296q196 0 362 277l63 321q-60 24 -202 24q-257 0 -322 -326zM459 1444h322l93 -261h-227z" />
<glyph unicode="&#xe1;" horiz-adv-x="1198" d="M35 516q109 544 660 544q185 0 437 -43l-203 -1017h-237l24 273q-174 -273 -412 -273q-372 0 -269 516zM301 518q-60 -296 99 -296q196 0 362 277l63 321q-60 24 -202 24q-257 0 -322 -326zM562 1183l198 261h322l-294 -261h-226z" />
<glyph unicode="&#xe2;" horiz-adv-x="1198" d="M35 516q109 544 660 544q185 0 437 -43l-203 -1017h-237l24 273q-174 -273 -412 -273q-372 0 -269 516zM301 518q-60 -296 99 -296q196 0 362 277l63 321q-60 24 -202 24q-257 0 -322 -326zM466 1182l229 262h151l125 -262h-182l-45 131l-97 -131h-181z" />
<glyph unicode="&#xe3;" horiz-adv-x="1198" d="M35 516q109 544 660 544q185 0 437 -43l-203 -1017h-237l24 273q-174 -273 -412 -273q-372 0 -269 516zM301 518q-60 -296 99 -296q196 0 362 277l63 321q-60 24 -202 24q-257 0 -322 -326zM467 1186l42 212q70 46 140 46q53 0 106 -26q54 -26 111 -26q75 0 156 46 l-42 -212q-70 -46 -141 -46q-52 0 -106 26q-53 26 -110 26q-76 0 -156 -46z" />
<glyph unicode="&#xe4;" horiz-adv-x="1198" d="M35 516q109 544 660 544q185 0 437 -43l-203 -1017h-237l24 273q-174 -273 -412 -273q-372 0 -269 516zM301 518q-60 -296 99 -296q196 0 362 277l63 321q-60 24 -202 24q-257 0 -322 -326zM451 1252l39 192h217l-38 -192h-218zM795 1252l38 192h217l-38 -192h-217z" />
<glyph unicode="&#xe5;" horiz-adv-x="1198" d="M35 516q109 544 660 544q185 0 437 -43l-203 -1017h-237l24 273q-174 -273 -412 -273q-372 0 -269 516zM301 518q-60 -296 99 -296q196 0 362 277l63 321q-60 24 -202 24q-257 0 -322 -326zM528 1375q43 212 273 212q226 0 184 -212q-43 -211 -269 -211q-230 0 -188 211z M619 1377q-27 -139 112 -139q136 0 163 139q27 135 -108 135q-140 0 -167 -135z" />
<glyph unicode="&#xe6;" horiz-adv-x="1762" d="M-1 332q65 324 506 324q105 0 224 -22q43 214 -202 214q-171 0 -345 -48l41 207q181 53 349 53q274 0 357 -114q150 114 388 114q453 0 389 -317t-491 -317h-266q-42 -214 237 -214q211 0 398 131l-43 -212q-166 -131 -418 -131q-239 0 -347 112q-217 -112 -424 -112 q-420 0 -353 332zM267 333q-29 -141 123 -141q153 0 261 73l37 179q-107 21 -222 21q-173 0 -199 -132zM989 622h267q167 0 190 114t-171 114q-223 0 -286 -228z" />
<glyph unicode="&#xe7;" horiz-adv-x="949" d="M25 540q104 520 650 520q151 0 276 -30l-42 -212q-125 30 -257 30q-297 0 -359 -308q-66 -328 192 -328q171 0 329 131l-42 -212q-145 -120 -318 -130l-58 -79q216 0 184 -163q-38 -185 -311 -185q-109 0 -208 50l26 130q99 -51 208 -51t120 56q9 44 -75 44h-184l141 207 q-366 63 -272 530z" />
<glyph unicode="&#xe8;" horiz-adv-x="1091" d="M25 542q104 518 612 518q453 0 389 -317q-63 -317 -491 -317h-265q-43 -214 236 -214q211 0 398 131l-42 -212q-167 -131 -419 -131q-526 0 -418 542zM309 622h268q166 0 190 114q22 114 -172 114q-222 0 -286 -228zM415 1444h322l93 -261h-226z" />
<glyph unicode="&#xe9;" horiz-adv-x="1091" d="M25 542q104 518 612 518q453 0 389 -317q-63 -317 -491 -317h-265q-43 -214 236 -214q211 0 398 131l-42 -212q-167 -131 -419 -131q-526 0 -418 542zM309 622h268q166 0 190 114q22 114 -172 114q-222 0 -286 -228zM478 1183l198 261h322l-294 -261h-226z" />
<glyph unicode="&#xea;" horiz-adv-x="1091" d="M25 542q104 518 612 518q453 0 389 -317q-63 -317 -491 -317h-265q-43 -214 236 -214q211 0 398 131l-42 -212q-167 -131 -419 -131q-526 0 -418 542zM309 622h268q166 0 190 114q22 114 -172 114q-222 0 -286 -228zM392 1182l229 262h152l124 -262h-182l-44 131 l-97 -131h-182z" />
<glyph unicode="&#xeb;" horiz-adv-x="1091" d="M25 542q104 518 612 518q453 0 389 -317q-63 -317 -491 -317h-265q-43 -214 236 -214q211 0 398 131l-42 -212q-167 -131 -419 -131q-526 0 -418 542zM309 622h268q166 0 190 114q22 114 -172 114q-222 0 -286 -228zM378 1252l38 192h217l-38 -192h-217zM721 1252l39 192 h217l-39 -192h-217z" />
<glyph unicode="&#xec;" horiz-adv-x="520" d="M-17 0l212 1060h268l-213 -1060h-267zM94 1444h322l93 -261h-226z" />
<glyph unicode="&#xed;" horiz-adv-x="520" d="M-17 0l212 1060h268l-213 -1060h-267zM197 1183l198 261h322l-294 -261h-226z" />
<glyph unicode="&#xee;" horiz-adv-x="520" d="M-16 0l212 1060h268l-213 -1060h-267zM101 1182l229 262h152l124 -262h-182l-44 131l-97 -131h-182z" />
<glyph unicode="&#xef;" horiz-adv-x="520" d="M-17 0l212 1060h268l-213 -1060h-267zM87 1252l38 192h217l-38 -192h-217zM430 1252l39 192h217l-39 -192h-217z" />
<glyph unicode="&#xf0;" horiz-adv-x="1191" d="M41 545q103 515 542 515q179 0 270 -90q-35 134 -135 200l-253 -98l24 120l83 32q-49 8 -104 8h-208l42 212h210q252 0 400 -89l230 89l-24 -120l-111 -43q183 -195 97 -625q-133 -666 -656 -666q-518 0 -407 555zM305 545q-69 -343 187 -343q253 0 343 450q19 97 13 156 q-80 50 -226 50q-254 0 -317 -313z" />
<glyph unicode="&#xf1;" d="M-17 0l212 1060h237l-41 -357q197 357 493 357q306 0 237 -344l-143 -716h-268l143 719q26 125 -119 125q-191 0 -382 -336l-102 -508h-267zM466 1186l42 212q70 46 140 46q53 0 106 -26q54 -26 111 -26q75 0 156 46l-42 -212q-70 -46 -141 -46q-52 0 -106 26 q-53 26 -110 26q-76 0 -156 -46z" />
<glyph unicode="&#xf2;" horiz-adv-x="1181" d="M38 530q108 541 624 541q515 0 407 -541q-108 -539 -624 -539q-513 0 -407 539zM307 534q-67 -332 181 -332q247 0 314 332q65 324 -183 324q-247 0 -312 -324zM424 1444h322l93 -261h-226z" />
<glyph unicode="&#xf3;" horiz-adv-x="1181" d="M38 530q108 541 624 541q515 0 407 -541q-108 -539 -624 -539q-513 0 -407 539zM307 534q-67 -332 181 -332q247 0 314 332q65 324 -183 324q-247 0 -312 -324zM528 1183l198 261h322l-294 -261h-226z" />
<glyph unicode="&#xf4;" horiz-adv-x="1181" d="M38 530q108 541 624 541q515 0 407 -541q-108 -539 -624 -539q-513 0 -407 539zM307 534q-67 -332 181 -332q247 0 314 332q65 324 -183 324q-247 0 -312 -324zM431 1182l230 262h151l124 -262h-182l-44 131l-97 -131h-182z" />
<glyph unicode="&#xf5;" horiz-adv-x="1181" d="M38 530q108 541 624 541q515 0 407 -541q-108 -539 -624 -539q-513 0 -407 539zM307 534q-67 -332 181 -332q247 0 314 332q65 324 -183 324q-247 0 -312 -324zM432 1186l43 212q69 46 140 46q53 0 106 -26q54 -26 110 -26q76 0 157 46l-43 -212q-69 -46 -140 -46 q-53 0 -106 26q-54 26 -110 26q-76 0 -157 -46z" />
<glyph unicode="&#xf6;" horiz-adv-x="1181" d="M38 530q108 541 624 541q515 0 407 -541q-108 -539 -624 -539q-513 0 -407 539zM307 534q-67 -332 181 -332q247 0 314 332q65 324 -183 324q-247 0 -312 -324zM418 1252l39 192h217l-39 -192h-217zM762 1252l38 192h217l-38 -192h-217z" />
<glyph unicode="&#xf7;" horiz-adv-x="994" d="M42 424l43 212h793l-43 -212h-793zM271 152l38 191h227l-38 -191h-227zM384 717l38 192h227l-38 -192h-227z" />
<glyph unicode="&#xf8;" horiz-adv-x="1191" d="M-83 0l147 153q-83 133 -36 377q108 541 644 541q142 0 238 -39l27 28h261l-138 -143q89 -134 39 -387q-108 -539 -643 -539q-149 0 -248 41l-31 -32h-260zM285 383l443 460q-41 15 -99 15q-267 0 -332 -324q-18 -88 -12 -151zM390 221q44 -19 108 -19q268 0 334 332 q18 91 10 157z" />
<glyph unicode="&#xf9;" d="M52 344l143 716h268l-144 -719q-25 -125 119 -125q191 0 382 336l102 508h268l-212 -1060h-238l42 358q-197 -358 -493 -358q-306 0 -237 344zM458 1444h322l93 -261h-227z" />
<glyph unicode="&#xfa;" d="M52 344l143 716h268l-144 -719q-25 -125 119 -125q191 0 382 336l102 508h268l-212 -1060h-238l42 358q-197 -358 -493 -358q-306 0 -237 344zM561 1183l198 261h322l-294 -261h-226z" />
<glyph unicode="&#xfb;" d="M52 344l143 716h268l-144 -719q-25 -125 119 -125q191 0 382 336l102 508h268l-212 -1060h-238l42 358q-197 -358 -493 -358q-306 0 -237 344zM465 1182l229 262h151l125 -262h-182l-45 131l-97 -131h-181z" />
<glyph unicode="&#xfc;" d="M52 344l143 716h268l-144 -719q-25 -125 119 -125q191 0 382 336l102 508h268l-212 -1060h-238l42 358q-197 -358 -493 -358q-306 0 -237 344zM450 1252l39 192h217l-38 -192h-218zM794 1252l38 192h217l-38 -192h-217z" />
<glyph unicode="&#xfd;" d="M-5 -333l42 212q145 -51 340 -51q299 0 333 172l72 358q-197 -358 -493 -358q-306 0 -237 344l143 716h268l-144 -719q-25 -125 119 -125q191 0 382 336l102 508h268l-212 -1060q-77 -384 -646 -384q-196 0 -337 51zM561 1183l198 261h322l-294 -261h-226z" />
<glyph unicode="&#xfe;" horiz-adv-x="1189" d="M-94 -384l366 1828h267l-127 -636q171 252 419 252q352 0 254 -488q-114 -572 -633 -572q-97 0 -200 9l-78 -393h-268zM300 245q86 -29 207 -29q242 0 313 353q54 269 -125 269q-166 0 -328 -256z" />
<glyph unicode="&#xff;" d="M-5 -333l42 212q145 -51 340 -51q299 0 333 172l72 358q-197 -358 -493 -358q-306 0 -237 344l143 716h268l-144 -719q-25 -125 119 -125q191 0 382 336l102 508h268l-212 -1060q-77 -384 -646 -384q-196 0 -337 51zM450 1252l39 192h217l-38 -192h-218zM794 1252l38 192 h217l-38 -192h-217z" />
<glyph unicode="&#x152;" horiz-adv-x="2237" d="M102 720q144 724 870 724h1269l-46 -232h-707q89 -113 68 -364h531l-47 -232h-530q-70 -244 -209 -384h713l-47 -232h-1284q-693 0 -581 720zM381 726q-99 -494 348 -494q426 0 525 494q97 486 -329 486q-447 0 -544 -486z" />
<glyph unicode="&#x153;" horiz-adv-x="1869" d="M38 530q108 541 624 541q253 0 346 -182q162 171 407 171q452 0 389 -317q-64 -317 -491 -317h-266q-42 -214 237 -214q211 0 398 131l-43 -212q-166 -131 -418 -131q-254 0 -350 178q-167 -187 -426 -187q-513 0 -407 539zM307 534q-67 -332 181 -332q247 0 314 332 q65 324 -183 324q-247 0 -312 -324zM1087 622h267q167 0 190 114t-171 114q-223 0 -286 -228z" />
<glyph unicode="&#x178;" horiz-adv-x="1313" d="M171 1444h277l267 -696l521 696h288l-719 -939l-101 -505h-268l101 505zM609 1636l38 192h218l-39 -192h-217zM952 1636l39 192h217l-38 -192h-218z" />
<glyph unicode="&#x2c6;" horiz-adv-x="707" d="M194 1182l229 262h152l124 -262h-182l-44 131l-97 -131h-182z" />
<glyph unicode="&#x2dc;" horiz-adv-x="707" d="M195 1186l42 212q70 46 141 46q52 0 106 -26q53 -26 110 -26q76 0 156 46l-42 -212q-70 -46 -140 -46q-53 0 -106 26q-54 26 -111 26q-75 0 -156 -46z" />
<glyph unicode="&#x2000;" horiz-adv-x="918" />
<glyph unicode="&#x2001;" horiz-adv-x="1837" />
<glyph unicode="&#x2002;" horiz-adv-x="918" />
<glyph unicode="&#x2003;" horiz-adv-x="1837" />
<glyph unicode="&#x2004;" horiz-adv-x="612" />
<glyph unicode="&#x2005;" horiz-adv-x="458" />
<glyph unicode="&#x2006;" horiz-adv-x="306" />
<glyph unicode="&#x2007;" horiz-adv-x="306" />
<glyph unicode="&#x2008;" horiz-adv-x="229" />
<glyph unicode="&#x2009;" horiz-adv-x="366" />
<glyph unicode="&#x200a;" horiz-adv-x="102" />
<glyph unicode="&#x2010;" horiz-adv-x="707" d="M42 424l43 212h505l-43 -212h-505z" />
<glyph unicode="&#x2011;" horiz-adv-x="707" d="M42 424l43 212h505l-43 -212h-505z" />
<glyph unicode="&#x2012;" horiz-adv-x="707" d="M42 424l43 212h505l-43 -212h-505z" />
<glyph unicode="&#x2013;" horiz-adv-x="1212" d="M42 424l43 212h1010l-43 -212h-1010z" />
<glyph unicode="&#x2014;" horiz-adv-x="1717" d="M42 424l43 212h1515l-43 -212h-1515z" />
<glyph unicode="&#x2018;" horiz-adv-x="499" d="M108 1005l239 439h248l-239 -439h-248z" />
<glyph unicode="&#x2019;" horiz-adv-x="499" d="M108 1005l239 439h248l-239 -439h-248z" />
<glyph unicode="&#x201a;" horiz-adv-x="439" d="M-143 -252l239 439h187l-240 -439h-186z" />
<glyph unicode="&#x201c;" horiz-adv-x="934" d="M108 1005l239 439h248l-239 -439h-248zM542 1005l240 439h247l-239 -439h-248z" />
<glyph unicode="&#x201d;" horiz-adv-x="934" d="M108 1005l239 439h248l-239 -439h-248zM542 1005l240 439h247l-239 -439h-248z" />
<glyph unicode="&#x201e;" horiz-adv-x="934" d="M-143 -252l239 439h247l-239 -439h-247zM291 -252l239 439h248l-240 -439h-247z" />
<glyph unicode="&#x2022;" horiz-adv-x="636" d="M104 732q43 217 261 217q217 0 173 -217q-43 -217 -260 -217t-174 217z" />
<glyph unicode="&#x2026;" horiz-adv-x="1479" d="M-42 0l49 247h268l-50 -247h-267zM463 0l49 247h268l-50 -247h-267zM968 0l49 247h268l-50 -247h-267z" />
<glyph unicode="&#x202f;" horiz-adv-x="366" />
<glyph unicode="&#x2039;" horiz-adv-x="636" d="M13 530l336 379h275l-336 -379l185 -378h-275z" />
<glyph unicode="&#x203a;" horiz-adv-x="636" d="M-63 152l337 378l-185 379h275l184 -379l-336 -378h-275z" />
<glyph unicode="&#x205f;" horiz-adv-x="458" />
<glyph unicode="&#x20ac;" horiz-adv-x="1398" d="M106 742q142 712 900 712q217 0 392 -60l-49 -243q-172 71 -369 71q-422 0 -537 -230h680l-42 -212h-700l-14 -71h700l-43 -212h-680q3 -275 436 -275q197 0 398 71l-49 -243q-199 -60 -416 -60q-757 0 -607 752z" />
<glyph unicode="&#x2122;" horiz-adv-x="1622" d="M283 1373l14 71h516l-14 -71h-214l-121 -608h-88l121 608h-214zM768 765l135 679h111l137 -566l358 566h107l-135 -679h-79l109 548l-351 -548h-69l-137 548l-109 -548h-77z" />
</font>
</defs>
</svg>
